<mxfile host="app.diagrams.net" modified="2022-04-24T21:19:06.893Z" agent="5.0 (Windows NT 10.0; Win64; x64) AppleWebKit/537.36 (KHTML, like Gecko) Chrome/100.0.4896.127 Safari/537.36" etag="pzekrZhDt6JmHxSFcKm4" version="17.4.2" type="github">
  <diagram id="Bd8AebASSwnwmHRj-B82" name="Page-1">
    <mxGraphModel dx="677" dy="347" grid="1" gridSize="10" guides="1" tooltips="1" connect="1" arrows="1" fold="1" page="1" pageScale="1" pageWidth="850" pageHeight="1100" math="0" shadow="0">
      <root>
        <mxCell id="0" />
        <mxCell id="1" parent="0" />
        <mxCell id="XnTpDphRwyGdSZoY5Uar-5" value="" style="group" vertex="1" connectable="0" parent="1">
          <mxGeometry x="320" y="480" width="80" height="80" as="geometry" />
        </mxCell>
        <mxCell id="XnTpDphRwyGdSZoY5Uar-6" value="" style="whiteSpace=wrap;html=1;aspect=fixed;" vertex="1" parent="XnTpDphRwyGdSZoY5Uar-5">
          <mxGeometry width="80" height="80" as="geometry" />
        </mxCell>
        <mxCell id="XnTpDphRwyGdSZoY5Uar-7" value="" style="whiteSpace=wrap;html=1;aspect=fixed;" vertex="1" parent="XnTpDphRwyGdSZoY5Uar-5">
          <mxGeometry y="40" width="40" height="40" as="geometry" />
        </mxCell>
        <mxCell id="XnTpDphRwyGdSZoY5Uar-8" value="" style="whiteSpace=wrap;html=1;aspect=fixed;" vertex="1" parent="XnTpDphRwyGdSZoY5Uar-5">
          <mxGeometry x="40" y="40" width="40" height="40" as="geometry" />
        </mxCell>
        <mxCell id="XnTpDphRwyGdSZoY5Uar-44" value="67" style="rounded=0;whiteSpace=wrap;html=1;" vertex="1" parent="XnTpDphRwyGdSZoY5Uar-5">
          <mxGeometry width="80" height="40" as="geometry" />
        </mxCell>
        <mxCell id="XnTpDphRwyGdSZoY5Uar-9" value="" style="group" vertex="1" connectable="0" parent="1">
          <mxGeometry x="440" y="480" width="80" height="80" as="geometry" />
        </mxCell>
        <mxCell id="XnTpDphRwyGdSZoY5Uar-10" value="" style="whiteSpace=wrap;html=1;aspect=fixed;" vertex="1" parent="XnTpDphRwyGdSZoY5Uar-9">
          <mxGeometry width="80" height="80" as="geometry" />
        </mxCell>
        <mxCell id="XnTpDphRwyGdSZoY5Uar-11" value="" style="whiteSpace=wrap;html=1;aspect=fixed;" vertex="1" parent="XnTpDphRwyGdSZoY5Uar-9">
          <mxGeometry y="40" width="40" height="40" as="geometry" />
        </mxCell>
        <mxCell id="XnTpDphRwyGdSZoY5Uar-12" value="" style="whiteSpace=wrap;html=1;aspect=fixed;" vertex="1" parent="XnTpDphRwyGdSZoY5Uar-9">
          <mxGeometry x="40" y="40" width="40" height="40" as="geometry" />
        </mxCell>
        <mxCell id="XnTpDphRwyGdSZoY5Uar-43" value="107" style="rounded=0;whiteSpace=wrap;html=1;" vertex="1" parent="XnTpDphRwyGdSZoY5Uar-9">
          <mxGeometry width="80" height="40" as="geometry" />
        </mxCell>
        <mxCell id="XnTpDphRwyGdSZoY5Uar-13" value="" style="group" vertex="1" connectable="0" parent="1">
          <mxGeometry x="80" y="480" width="80" height="80" as="geometry" />
        </mxCell>
        <mxCell id="XnTpDphRwyGdSZoY5Uar-14" value="" style="whiteSpace=wrap;html=1;aspect=fixed;" vertex="1" parent="XnTpDphRwyGdSZoY5Uar-13">
          <mxGeometry width="80" height="80" as="geometry" />
        </mxCell>
        <mxCell id="XnTpDphRwyGdSZoY5Uar-15" value="" style="whiteSpace=wrap;html=1;aspect=fixed;" vertex="1" parent="XnTpDphRwyGdSZoY5Uar-13">
          <mxGeometry y="40" width="40" height="40" as="geometry" />
        </mxCell>
        <mxCell id="XnTpDphRwyGdSZoY5Uar-16" value="" style="whiteSpace=wrap;html=1;aspect=fixed;" vertex="1" parent="XnTpDphRwyGdSZoY5Uar-13">
          <mxGeometry x="40" y="40" width="40" height="40" as="geometry" />
        </mxCell>
        <mxCell id="XnTpDphRwyGdSZoY5Uar-46" value="45" style="rounded=0;whiteSpace=wrap;html=1;" vertex="1" parent="XnTpDphRwyGdSZoY5Uar-13">
          <mxGeometry width="80" height="40" as="geometry" />
        </mxCell>
        <mxCell id="XnTpDphRwyGdSZoY5Uar-17" value="" style="group" vertex="1" connectable="0" parent="1">
          <mxGeometry x="200" y="480" width="80" height="80" as="geometry" />
        </mxCell>
        <mxCell id="XnTpDphRwyGdSZoY5Uar-18" value="" style="whiteSpace=wrap;html=1;aspect=fixed;" vertex="1" parent="XnTpDphRwyGdSZoY5Uar-17">
          <mxGeometry width="80" height="80" as="geometry" />
        </mxCell>
        <mxCell id="XnTpDphRwyGdSZoY5Uar-19" value="" style="whiteSpace=wrap;html=1;aspect=fixed;" vertex="1" parent="XnTpDphRwyGdSZoY5Uar-17">
          <mxGeometry y="40" width="40" height="40" as="geometry" />
        </mxCell>
        <mxCell id="XnTpDphRwyGdSZoY5Uar-20" value="" style="whiteSpace=wrap;html=1;aspect=fixed;" vertex="1" parent="XnTpDphRwyGdSZoY5Uar-17">
          <mxGeometry x="40" y="40" width="40" height="40" as="geometry" />
        </mxCell>
        <mxCell id="XnTpDphRwyGdSZoY5Uar-45" value="57" style="rounded=0;whiteSpace=wrap;html=1;" vertex="1" parent="XnTpDphRwyGdSZoY5Uar-17">
          <mxGeometry width="80" height="40" as="geometry" />
        </mxCell>
        <mxCell id="XnTpDphRwyGdSZoY5Uar-21" value="" style="group" vertex="1" connectable="0" parent="1">
          <mxGeometry x="140" y="360" width="80" height="80" as="geometry" />
        </mxCell>
        <mxCell id="XnTpDphRwyGdSZoY5Uar-22" value="" style="whiteSpace=wrap;html=1;aspect=fixed;" vertex="1" parent="XnTpDphRwyGdSZoY5Uar-21">
          <mxGeometry width="80" height="80" as="geometry" />
        </mxCell>
        <mxCell id="XnTpDphRwyGdSZoY5Uar-23" value="" style="whiteSpace=wrap;html=1;aspect=fixed;" vertex="1" parent="XnTpDphRwyGdSZoY5Uar-21">
          <mxGeometry y="40" width="40" height="40" as="geometry" />
        </mxCell>
        <mxCell id="XnTpDphRwyGdSZoY5Uar-24" value="" style="whiteSpace=wrap;html=1;aspect=fixed;" vertex="1" parent="XnTpDphRwyGdSZoY5Uar-21">
          <mxGeometry x="40" y="40" width="40" height="40" as="geometry" />
        </mxCell>
        <mxCell id="XnTpDphRwyGdSZoY5Uar-41" value="55" style="rounded=0;whiteSpace=wrap;html=1;" vertex="1" parent="XnTpDphRwyGdSZoY5Uar-21">
          <mxGeometry width="80" height="40" as="geometry" />
        </mxCell>
        <mxCell id="XnTpDphRwyGdSZoY5Uar-25" value="" style="group" vertex="1" connectable="0" parent="1">
          <mxGeometry x="380" y="360" width="80" height="80" as="geometry" />
        </mxCell>
        <mxCell id="XnTpDphRwyGdSZoY5Uar-26" value="" style="whiteSpace=wrap;html=1;aspect=fixed;" vertex="1" parent="XnTpDphRwyGdSZoY5Uar-25">
          <mxGeometry width="80" height="80" as="geometry" />
        </mxCell>
        <mxCell id="XnTpDphRwyGdSZoY5Uar-27" value="" style="whiteSpace=wrap;html=1;aspect=fixed;" vertex="1" parent="XnTpDphRwyGdSZoY5Uar-25">
          <mxGeometry y="40" width="40" height="40" as="geometry" />
        </mxCell>
        <mxCell id="XnTpDphRwyGdSZoY5Uar-28" value="" style="whiteSpace=wrap;html=1;aspect=fixed;" vertex="1" parent="XnTpDphRwyGdSZoY5Uar-25">
          <mxGeometry x="40" y="40" width="40" height="40" as="geometry" />
        </mxCell>
        <mxCell id="XnTpDphRwyGdSZoY5Uar-42" value="100" style="rounded=0;whiteSpace=wrap;html=1;" vertex="1" parent="XnTpDphRwyGdSZoY5Uar-25">
          <mxGeometry width="80" height="40" as="geometry" />
        </mxCell>
        <mxCell id="XnTpDphRwyGdSZoY5Uar-29" value="" style="endArrow=none;html=1;rounded=0;exitX=0.5;exitY=0;exitDx=0;exitDy=0;entryX=0;entryY=1;entryDx=0;entryDy=0;" edge="1" parent="1" source="XnTpDphRwyGdSZoY5Uar-22" target="XnTpDphRwyGdSZoY5Uar-2">
          <mxGeometry width="50" height="50" relative="1" as="geometry">
            <mxPoint x="290" y="440" as="sourcePoint" />
            <mxPoint x="340" y="390" as="targetPoint" />
          </mxGeometry>
        </mxCell>
        <mxCell id="XnTpDphRwyGdSZoY5Uar-30" value="" style="endArrow=none;html=1;rounded=0;exitX=0.5;exitY=0;exitDx=0;exitDy=0;entryX=1;entryY=1;entryDx=0;entryDy=0;" edge="1" parent="1" source="XnTpDphRwyGdSZoY5Uar-26" target="XnTpDphRwyGdSZoY5Uar-3">
          <mxGeometry width="50" height="50" relative="1" as="geometry">
            <mxPoint x="190" y="370" as="sourcePoint" />
            <mxPoint x="270" y="330" as="targetPoint" />
          </mxGeometry>
        </mxCell>
        <mxCell id="XnTpDphRwyGdSZoY5Uar-35" value="" style="endArrow=none;html=1;rounded=0;exitX=0.5;exitY=0;exitDx=0;exitDy=0;entryX=0;entryY=1;entryDx=0;entryDy=0;" edge="1" parent="1" source="XnTpDphRwyGdSZoY5Uar-14" target="XnTpDphRwyGdSZoY5Uar-23">
          <mxGeometry width="50" height="50" relative="1" as="geometry">
            <mxPoint x="240" y="420" as="sourcePoint" />
            <mxPoint x="320" y="380" as="targetPoint" />
          </mxGeometry>
        </mxCell>
        <mxCell id="XnTpDphRwyGdSZoY5Uar-36" value="" style="endArrow=none;html=1;rounded=0;exitX=0.5;exitY=0;exitDx=0;exitDy=0;entryX=1;entryY=1;entryDx=0;entryDy=0;" edge="1" parent="1" source="XnTpDphRwyGdSZoY5Uar-18" target="XnTpDphRwyGdSZoY5Uar-24">
          <mxGeometry width="50" height="50" relative="1" as="geometry">
            <mxPoint x="140" y="490" as="sourcePoint" />
            <mxPoint x="220" y="450" as="targetPoint" />
          </mxGeometry>
        </mxCell>
        <mxCell id="XnTpDphRwyGdSZoY5Uar-37" value="" style="endArrow=none;html=1;rounded=0;exitX=0.5;exitY=0;exitDx=0;exitDy=0;entryX=0;entryY=1;entryDx=0;entryDy=0;" edge="1" parent="1" source="XnTpDphRwyGdSZoY5Uar-6" target="XnTpDphRwyGdSZoY5Uar-27">
          <mxGeometry width="50" height="50" relative="1" as="geometry">
            <mxPoint x="260" y="440" as="sourcePoint" />
            <mxPoint x="340" y="400" as="targetPoint" />
          </mxGeometry>
        </mxCell>
        <mxCell id="XnTpDphRwyGdSZoY5Uar-38" value="" style="endArrow=none;html=1;rounded=0;exitX=0.5;exitY=0;exitDx=0;exitDy=0;entryX=1;entryY=1;entryDx=0;entryDy=0;" edge="1" parent="1" source="XnTpDphRwyGdSZoY5Uar-10" target="XnTpDphRwyGdSZoY5Uar-28">
          <mxGeometry width="50" height="50" relative="1" as="geometry">
            <mxPoint x="270" y="450" as="sourcePoint" />
            <mxPoint x="350" y="410" as="targetPoint" />
          </mxGeometry>
        </mxCell>
        <mxCell id="XnTpDphRwyGdSZoY5Uar-2" value="" style="whiteSpace=wrap;html=1;aspect=fixed;" vertex="1" parent="1">
          <mxGeometry x="260" y="280" width="40" height="40" as="geometry" />
        </mxCell>
        <mxCell id="XnTpDphRwyGdSZoY5Uar-3" value="" style="whiteSpace=wrap;html=1;aspect=fixed;" vertex="1" parent="1">
          <mxGeometry x="300" y="280" width="40" height="40" as="geometry" />
        </mxCell>
        <mxCell id="XnTpDphRwyGdSZoY5Uar-40" value="60" style="rounded=0;whiteSpace=wrap;html=1;" vertex="1" parent="1">
          <mxGeometry x="260" y="240" width="80" height="40" as="geometry" />
        </mxCell>
        <mxCell id="XnTpDphRwyGdSZoY5Uar-47" value="" style="whiteSpace=wrap;html=1;aspect=fixed;" vertex="1" parent="1">
          <mxGeometry x="550" y="350" width="40" height="40" as="geometry" />
        </mxCell>
        <mxCell id="XnTpDphRwyGdSZoY5Uar-48" value="" style="whiteSpace=wrap;html=1;aspect=fixed;" vertex="1" parent="1">
          <mxGeometry x="590" y="350" width="40" height="40" as="geometry" />
        </mxCell>
        <mxCell id="XnTpDphRwyGdSZoY5Uar-49" value="101" style="rounded=0;whiteSpace=wrap;html=1;" vertex="1" parent="1">
          <mxGeometry x="550" y="310" width="80" height="40" as="geometry" />
        </mxCell>
      </root>
    </mxGraphModel>
  </diagram>
</mxfile>
